<svg fill="none" height="24" viewBox="0 0 24 24" width="24" xmlns="http://www.w3.org/2000/svg"><path d="m18.65 12.14c.3243-.924.4669-1.9019.42-2.88.009-.57039-.0981-1.13664-.3147-1.66438s-.5382-1.00596-.9453-1.40562c.246-.88116.1825-1.82-.18-2.66 0 0-.88-.28-2.87 1.05-.7981-.19782-1.6177-.29524-2.44-.29-.9149-.00504-1.8263.11268-2.70995.35-2-1.4-3-1.11-3-1.11-.39944.90054-.44233 1.91908-.12 2.85-.71561.78623-1.10219 1.81711-1.08 2.88 0 3.13 1.32 5 5.10995 5.36-.2182.1489-.4049.3395-.54904.5609-.14417.2215-.24305.4693-.29091.7291-.23654.1423-.49926.2356-.77257.2744-.2733.0387-.55161.0222-.81839-.0487s-.51659-.1947-.73459-.364c-.21801-.1693-.39976-.3808-.53445-.6217-.15034-.2675-.36021-.4969-.61339-.6703-.25317-.1734-.54285-.2862-.84661-.3297 0 0-.93 0-.06.58.48486.3373.83815.8319 1 1.4 0 0 .61 1.87 3.31 1.28v1.94c-.02214.2011-.09785.3925-.21922.5543-.12137.1619-.28395.2882-.47078.3657 0 0-.37.26 0 .4 0 0 1.74995.14 1.74995-1.29v-2.11s-.07-.84.34-1.13v3.47s0 .83-.46 1.14c0 0-.28.52.35.38.3616-.0731.6855-.2719.9143-.5612.2288-.2892.3478-.6502.3357-1.0188v-3.51h.29v3.51c-.012.3686.107.7296.3358 1.0188.2288.2893.5527.4881.9142.5612.63.14.35-.38.35-.38-.43-.31-.46-1.14-.46-1.14v-3.44c.41.32.34 1.1.34 1.1v2.11c0 1.43 1.75 1.29 1.75 1.29.4-.14 0-.4 0-.4-.1868-.0775-.3494-.2038-.4707-.3657-.1214-.1618-.1971-.3532-.2193-.5543v-2.77c.036-.3828-.028-.7683-.1857-1.1189-.1578-.3506-.4039-.6542-.7143-.8811 2.73-.22 4-1.06 4.57-2.44z" fill="#141b1e"/></svg>