<svg fill="none" height="24" viewBox="0 0 24 24" width="24" xmlns="http://www.w3.org/2000/svg"><path d="m19.35 12.17c.0018-.5095-.0417-1.0182-.13-1.52h-7.07v2.89h4c-.0846.4611-.2609.9006-.5186 1.2922-.2577.3917-.5914.7276-.9814.9878-.5826.3697-1.2415.6024-1.927.6806-.6856.0781-1.3799-.0003-2.0308-.2295-.6508-.2291-1.24118-.603-1.72657-1.0934-.4854-.4904-.85317-1.0845-1.07562-1.7377-.32-.9299-.32-1.9401 0-2.87.28888-.89241.85058-1.67164 1.6059-2.22781.75529-.55618 1.66619-.86125 2.60409-.87219 1.0768-.0251 2.1196.37765 2.9 1.12l2.14-2.14c-1.3559-1.26565-3.1452-1.96351-5-1.95-1.9891 0-3.89676.79018-5.30329 2.1967-1.40652 1.40652-2.1967 3.3142-2.1967 5.3033s.79018 3.8968 2.1967 5.3033c1.40653 1.4065 3.31419 2.1967 5.30329 2.1967 1.8372.0609 3.6275-.5872 5-1.81.7336-.7147 1.3092-1.5751 1.6899-2.5258.3806-.9508.5578-1.9708.5201-2.9942z" fill="#141b1e"/></svg>