<svg fill="none" height="24" viewBox="0 0 24 24" width="24" xmlns="http://www.w3.org/2000/svg"><g fill="#141b1e"><path d="m17.16 14.69c-.2749 0-.5436.0815-.7722.2343-.2286.1527-.4068.3698-.512.6238s-.1327.5334-.0791.8031c.0537.2696.186.5173.3804.7117s.4421.3268.7117.3804c.2697.0536.5492.0261.8032-.0791.2539-.1052.471-.2834.6238-.512.1527-.2285.2342-.4973.2342-.7722 0-.3686-.1464-.7222-.4071-.9829s-.6142-.4071-.9829-.4071z"/><path d="m18.36 6.55h-2.4v7.27h2.4z"/><path d="m13.35 12.39c-.2321-.25-.5117-.4512-.8225-.592s-.6464-.2183-.9875-.228c.5756-.1179 1.102-.4072 1.51-.83.3291-.4172.496-.93932.47-1.47-.0004-.44323-.1103-.8795-.32-1.27-.2167-.37741-.5356-.68592-.92-.89-.3956-.22679-.8294-.3793-1.28-.45-.8565-.09495-1.71846-.1317-2.57996-.11h-3v10.9h3.11c.89499.0178 1.79016-.0223 2.67996-.12.4806-.0663.9469-.2116 1.38-.43.4398-.2242.8046-.5717 1.05-1 .2536-.4835.3777-1.0244.36-1.57.0389-.7059-.1937-1.4-.65-1.94zm-5.12996-3.39h.64c.50671-.04752 1.01702.03868 1.47996.25.1305.10217.2335.23517.2999.38703.0663.15186.0938.31782.0801.48297.0154.1617-.0137.3245-.0842.4708s-.1797.2705-.3158.3592c-.47736.1978-.99474.2801-1.50996.24h-.59zm2.52996 6.26c-.468.2068-.97952.296-1.48996.26h-1v-2.42h1.04c.51276-.0414 1.02726.0553 1.48996.28.1476.1178.2621.2718.3322.4471s.0935.3658.0678.5529c.0188.1734-.0128.3486-.0908.5046s-.1992.2863-.3492.3754z"/></g></svg>