<svg fill="none" height="24" viewBox="0 0 24 24" width="24" xmlns="http://www.w3.org/2000/svg"><path d="m20.71 10.77c-.0361 1.6375-.7065 3.1971-1.87 4.35-2.0111 2.02-4.3174 3.7228-6.84 5.05-.93.39-.79-.25-.75-.47l.12-.74c.0602-.2599.0602-.5301 0-.79-.1-.24-.48-.37-.77-.43-4.18-.55-7.28-3.48-7.28-7-.03-3.87 3.88-7.04 8.68-7.04s8.71 3.17 8.71 7.07zm-10.48-1.88h-.61c-.04509 0-.08833.01791-.12021.04979s-.04979.07512-.04979.12021v3.79c.0024.0443.02108.0862.05245.1175.03138.0314.07324.0501.11755.0525h.61c.0443-.0024.0862-.0211.1175-.0525.0314-.0313.0501-.0732.0525-.1175v-3.79c0-.04509-.0179-.08833-.0498-.12021s-.0751-.04979-.1202-.04979zm4.2 0h-.61c-.0451 0-.0883.01791-.1202.04979s-.0498.07512-.0498.12021v2.25l-1.73-2.31h-.76c-.0451 0-.0883.01791-.1202.04979s-.0498.07512-.0498.12021v3.79c.0024.0443.0211.0862.0525.1175.0313.0314.0732.0501.1175.0525h.61c.0451 0 .0883-.0179.1202-.0498s.0498-.0751.0498-.1202v-2.36l1.74 2.4h.05.7c.0451 0 .0883-.0179.1202-.0498s.0498-.0751.0498-.1202v-3.77c.0015-.02271-.0019-.04547-.0099-.06676-.0081-.02129-.0205-.04062-.0366-.05671s-.0355-.02856-.0567-.03659c-.0213-.00802-.0441-.01141-.0668-.00994zm-5.67 3.18h-1.66v-3c0-.04509-.01792-.08833-.0498-.12021s-.07512-.04979-.1202-.04979h-.61c-.04509 0-.08833.01791-.12021.04979s-.04979.07512-.04979.12021v3.79c-.01459.0387-.01459.0813 0 .12.03867.0146.08133.0146.12 0h2.49c.0443-.0024.08616-.0211.11754-.0525.03137-.0313.05006-.0732.05246-.1175v-.61c-.0024-.0443-.02109-.0862-.05246-.1175-.03138-.0314-.07324-.0501-.11754-.0525zm9-2.27c.0242.00923.0501.01312.076.0114.0259-.00171.051-.00899.0738-.02133s.0427-.02946.0582-.05018c.0156-.02073.0265-.04457.032-.06989v-.61c0-.02233-.0044-.04443-.0129-.06506-.0086-.02062-.0211-.03937-.0369-.05515-.0158-.01579-.0345-.02831-.0551-.03685-.0207-.00855-.0428-.01294-.0651-.01294h-2.46c-.0392-.01167-.0809-.01167-.12 0-.0117.03915-.0117.08085 0 .12v3.79c.0001.045.0181.0882.05.12.0387.0146.0813.0146.12 0h2.44c.0443-.0024.0862-.0211.1175-.0525.0314-.0313.0501-.0732.0525-.1175v-.61c-.0024-.0443-.0211-.0862-.0525-.1175-.0313-.0314-.0732-.0501-.1175-.0525h-1.71v-.64h1.66c.0443-.0024.0862-.0211.1175-.0525.0314-.0313.0501-.0732.0525-.1175v-.61c0-.0451-.0179-.0883-.0498-.1202s-.0751-.0498-.1202-.0498h-1.66v-.54z" fill="#141b1e"/></svg>