<svg fill="none" height="24" viewBox="0 0 24 24" width="24" xmlns="http://www.w3.org/2000/svg"><path d="m9.05006 18.45c1.22044.0093 2.43054-.224 3.55994-.6865 1.1295-.4624 2.1557-1.1447 3.0192-2.0073.8635-.8625 1.5469-1.888 2.0105-3.017.4637-1.1289.6983-2.3388.6904-3.5592 0-.14 0-.28 0-.42.64-.45806 1.1894-1.03113 1.62-1.69-.5916.27023-1.2232.44247-1.87.51.6825-.40288 1.1919-1.04403 1.43-1.8-.6391.38113-1.3395.64843-2.07.79-.4921-.52746-1.1452-.87682-1.8571-.99336s-1.4423.00631-2.0769.34933c-.6346.34301-1.1374.88681-1.4299 1.54622-.2924.65942-.3579 1.3972-.1861 2.09781-1.2995-.06851-2.57004-.40923-3.72939-1.00011-1.15936-.59087-2.18165-1.41871-3.00065-2.42989-.41541.71686-.54322 1.56468-.3576 2.37215.18563.80746.67084 1.51435 1.3576 1.97785-.51985-.0108-1.0287-.1518-1.48-.41.00109.7536.26245 1.4837.73986 2.0668s1.14157.9834 1.88014 1.1332c-.47935.1297-.98168.1502-1.47.06.2072.6393.60635 1.1993 1.14315 1.6037s1.18516.6335 1.85685.6563c-.66323.5368-1.42623.9369-2.24494 1.1772s-1.67692.316-2.52506.2228c1.49122.9582 3.22749 1.4652 5 1.46" fill="#141b1e"/></svg>