<svg fill="none" height="24" viewBox="0 0 24 24" width="24" xmlns="http://www.w3.org/2000/svg"><path d="m19 2h-14c-.79565 0-1.55871.31607-2.12132.87868s-.87868 1.32567-.87868 2.12132v14c0 .7956.31607 1.5587.87868 2.1213s1.32567.8787 2.12132.8787h14c.7956 0 1.5587-.3161 2.1213-.8787s.8787-1.3257.8787-2.1213v-14c0-.79565-.3161-1.55871-.8787-2.12132s-1.3257-.87868-2.1213-.87868zm-11 15.5c-.29667 0-.58668-.088-.83336-.2528-.24667-.1648-.43893-.3991-.55246-.6732s-.14324-.5757-.08536-.8666c.05788-.291.20074-.5583.41052-.7681.20978-.2097.47705-.3526.76802-.4105.29098-.0579.59258-.0282.86667.0854.27408.1135.50835.3058.67317.5524.16483.2467.2528.5367.2528.8334 0 .3978-.15804.7794-.43934 1.0607s-.66284.4393-1.06066.4393zm0-8c-.29667 0-.58668-.08797-.83336-.2528-.24667-.16482-.43893-.39909-.55246-.67317-.11353-.27409-.14324-.57569-.08536-.86667.05788-.29097.20074-.55824.41052-.76802s.47705-.35264.76802-.41052c.29098-.05788.59258-.02817.86667.08536.27408.11353.50835.30579.67317.55246.16483.24668.2528.53669.2528.83336 0 .39782-.15804.77936-.43934 1.06066s-.66284.43934-1.06066.43934zm8 8c-.2967 0-.5867-.088-.8334-.2528-.2466-.1648-.4389-.3991-.5524-.6732-.1136-.2741-.1433-.5757-.0854-.8666.0579-.291.2008-.5583.4105-.7681.2098-.2097.4771-.3526.7681-.4105.2909-.0579.5925-.0282.8666.0854.2741.1135.5084.3058.6732.5524.1648.2467.2528.5367.2528.8334 0 .3978-.158.7794-.4393 1.0607s-.6629.4393-1.0607.4393zm0-8c-.2967 0-.5867-.08797-.8334-.2528-.2466-.16482-.4389-.39909-.5524-.67317-.1136-.27409-.1433-.57569-.0854-.86667.0579-.29097.2008-.55824.4105-.76802.2098-.20978.4771-.35264.7681-.41052.2909-.05788.5925-.02817.8666.08536s.5084.30579.6732.55246c.1648.24668.2528.53669.2528.83336 0 .39782-.158.77936-.4393 1.06066s-.6629.43934-1.0607.43934z" fill="#0fe"/></svg>