<svg fill="none" height="24" viewBox="0 0 24 24" width="24" xmlns="http://www.w3.org/2000/svg"><path d="m12 1c-2.17559 0-4.30233.64514-6.11127 1.85383-1.80894 1.2087-3.21884 2.92666-4.0514 4.93665s-1.050401 4.22172-.62596 6.35552c.42443 2.1338 1.47208 4.0938 3.01046 5.6322s3.49839 2.586 5.63218 3.0104c2.13379.4245 4.34549.2066 6.35549-.6259 2.01-.8326 3.728-2.2425 4.9367-4.0514 1.2087-1.809 1.8538-3.9357 1.8538-6.1113 0-2.91738-1.1589-5.71527-3.2218-7.77817s-4.8608-3.22183-7.7782-3.22183zm-5 12.5c-.29667 0-.58668-.088-.83335-.2528s-.43893-.3991-.55246-.6732c-.11354-.2741-.14324-.5757-.08536-.8666.05787-.291.20074-.5583.41051-.7681.20978-.2097.47706-.3526.76803-.4105s.59257-.0282.86666.0854c.27409.1135.50836.3058.67318.5524.16482.2467.25279.5367.25279.8334 0 .3978-.15803.7794-.43933 1.0607-.28131.2813-.66284.4393-1.06067.4393zm5 0c-.2967 0-.5867-.088-.8334-.2528-.2466-.1648-.4389-.3991-.5524-.6732s-.1433-.5757-.0854-.8666c.0579-.291.2008-.5583.4105-.7681.2098-.2097.4771-.3526.7681-.4105.2909-.0579.5925-.0282.8666.0854.2741.1135.5084.3058.6732.5524.1648.2467.2528.5367.2528.8334 0 .3978-.158.7794-.4393 1.0607s-.6629.4393-1.0607.4393zm5 0c-.2967 0-.5867-.088-.8334-.2528-.2466-.1648-.4389-.3991-.5524-.6732s-.1433-.5757-.0854-.8666c.0579-.291.2008-.5583.4105-.7681.2098-.2097.4771-.3526.7681-.4105.2909-.0579.5925-.0282.8666.0854.2741.1135.5084.3058.6732.5524.1648.2467.2528.5367.2528.8334 0 .3978-.158.7794-.4393 1.0607s-.6629.4393-1.0607.4393z" fill="#0fe"/></svg>