<svg fill="none" height="24" viewBox="0 0 24 24" width="24" xmlns="http://www.w3.org/2000/svg"><path d="m18 1h-12c-.53043 0-1.03914.21071-1.41421.58579-.37508.37507-.58579.88378-.58579 1.41421v18c0 .5304.21071 1.0391.58579 1.4142.37507.3751.88378.5858 1.41421.5858h12c.5304 0 1.0391-.2107 1.4142-.5858s.5858-.8838.5858-1.4142v-18c0-.53043-.2107-1.03914-.5858-1.41421-.3751-.37508-.8838-.58579-1.4142-.58579zm-3 12.5c-.2967 0-.5867-.088-.8334-.2528-.2466-.1648-.4389-.3991-.5524-.6732-.1136-.2741-.1433-.5757-.0854-.8666.0579-.291.2008-.5583.4105-.7681.2098-.2097.4771-.3526.7681-.4105.2909-.0579.5925-.0282.8666.0854.2741.1135.5084.3058.6732.5524.1648.2467.2528.5367.2528.8334 0 .3978-.158.7794-.4393 1.0607s-.6629.4393-1.0607.4393z" fill="#0fe"/></svg>