<svg fill="none" height="24" viewBox="0 0 24 24" width="24" xmlns="http://www.w3.org/2000/svg"><g fill="#fff" opacity=".4"><path d="m18 1h-12c-.53043 0-1.03914.21071-1.41421.58579-.37508.37507-.58579.88378-.58579 1.41421v18c0 .5304.21071 1.0391.58579 1.4142.37507.3751.88378.5858 1.41421.5858h12c.5304 0 1.0391-.2107 1.4142-.5858s.5858-.8838.5858-1.4142v-18c0-.53043-.2107-1.03914-.5858-1.41421-.3751-.37508-.8838-.58579-1.4142-.58579zm-12 20v-18h12v18z"/><path d="m15 13.5c.8284 0 1.5-.6716 1.5-1.5s-.6716-1.5-1.5-1.5-1.5.6716-1.5 1.5.6716 1.5 1.5 1.5z"/></g></svg>