<svg enable-background="new 0 0 1200 400" viewBox="0 0 1200 400" xmlns="http://www.w3.org/2000/svg"><path d="m0 0h1200v400h-1200z" fill="#023"/><path d="m285.8 0h-285.8v400h1053.6z" opacity=".2"/><g fill="#0fe"><path d="m850.1 92.4-57.6 100h49.9l57.6-100z"/><path d="m749.2 267.4h49.9l28.9-50h-50z"/><path d="m372 142.4-72 125h49.9l72.1-125z"/><path d="m614.9 67.4h-124.8l-115.3 200h49.9l28.8-50h25l-28.8 50h49.9zm-132.5 100 28.8-50h25l-28.8 50z"/><path d="m465.2 67.4h-49.9l-28.8 50h49.9z"/><path d="m596.7 142.4-72.1 125h49.9l72.1-125z"/><path d="m839.5 67.4h-124.7l-115.3 200h49.9l28.8-50h25l-28.8 50h49.9zm-132.5 100 28.8-50h25l-28.8 50z"/><path d="m661 117.4 28.8-50h-49.9l-28.8 50z"/></g><g fill="#fff" opacity=".4"><path d="m490.1 332.5c-.7.9-1.5 1.7-2.6 2.2-1.1.6-2.4.9-3.9.9-1.3 0-2.5-.2-3.6-.7-1.1-.4-2-1.1-2.8-1.8s-1.4-1.7-1.9-2.8c-.4-1.1-.7-2.3-.7-3.6s.2-2.5.7-3.6 1.1-2 1.9-2.8 1.8-1.4 2.9-1.8 2.3-.6 3.6-.6c.6 0 1.2.1 1.8.2s1.2.3 1.7.5 1 .5 1.5.8c.4.3.8.7 1.2 1.1l-1.9 1.4c-.4-.6-1-1.1-1.8-1.4-.8-.4-1.6-.6-2.5-.6-1 0-1.9.2-2.7.5s-1.5.9-2 1.5-1 1.3-1.3 2.2c-.3.8-.5 1.7-.5 2.6 0 1 .1 1.9.4 2.7s.7 1.6 1.3 2.2 1.2 1.1 2 1.5 1.7.5 2.7.5 1.8-.2 2.6-.6 1.4-.9 1.9-1.7z"/><path d="m504.7 329.4c0 .9-.2 1.7-.5 2.4s-.7 1.4-1.3 1.9-1.2 1-2 1.2c-.8.3-1.6.4-2.4.4-.9 0-1.7-.1-2.4-.4-.8-.3-1.4-.7-1.9-1.2s-1-1.2-1.3-1.9-.5-1.5-.5-2.4.2-1.7.5-2.4.7-1.4 1.3-1.9c.5-.5 1.2-.9 1.9-1.2.8-.3 1.6-.4 2.4-.4.9 0 1.7.1 2.4.4.8.3 1.4.7 2 1.2s1 1.2 1.3 1.9c.4.8.5 1.6.5 2.4zm-2.3.1c0-.5-.1-1.1-.3-1.6s-.4-.9-.7-1.3-.7-.7-1.2-.9-1-.3-1.6-.3-1.2.1-1.6.3c-.5.2-.9.5-1.2.9s-.6.8-.7 1.3c-.2.5-.3 1-.3 1.6 0 .5.1 1.1.3 1.6s.4.9.7 1.3.7.7 1.2.9 1 .3 1.6.3 1.2-.1 1.6-.3.9-.5 1.2-.9.6-.8.7-1.3c.2-.6.3-1.1.3-1.6z"/><path d="m523.7 332.5c-.7.9-1.5 1.7-2.6 2.2-1.1.6-2.4.9-3.9.9-1.3 0-2.5-.2-3.6-.7-1.1-.4-2-1.1-2.8-1.8s-1.4-1.7-1.9-2.8c-.4-1.1-.7-2.3-.7-3.6s.2-2.5.7-3.6 1.1-2 1.9-2.8 1.8-1.4 2.9-1.8 2.3-.6 3.6-.6c.6 0 1.2.1 1.8.2s1.2.3 1.7.5 1 .5 1.5.8c.4.3.8.7 1.2 1.1l-1.9 1.4c-.4-.6-1-1.1-1.8-1.4-.8-.4-1.6-.6-2.5-.6-1 0-1.9.2-2.7.5s-1.5.9-2 1.5-1 1.3-1.3 2.2c-.3.8-.5 1.7-.5 2.6 0 1 .1 1.9.4 2.7s.7 1.6 1.3 2.2 1.2 1.1 2 1.5 1.7.5 2.7.5 1.8-.2 2.6-.6 1.4-.9 1.9-1.7z"/><path d="m539.8 335.2h-2.4v-14.9h-5.4v-2.1h13.3v2.1h-5.4v14.9z"/><path d="m551 335.2h-2.4v-17h5.4c.8 0 1.6.1 2.3.3s1.4.4 1.9.8c.6.4 1 .9 1.3 1.5s.5 1.3.5 2.2c0 1.2-.4 2.3-1.2 3-.8.8-1.8 1.3-3 1.5l4.8 7.8h-2.9l-4.3-7.6h-2.4zm0-9.6h2.7c.6 0 1.1 0 1.6-.1s.9-.3 1.3-.5.6-.5.9-.8c.2-.3.3-.8.3-1.3s-.1-.9-.3-1.3c-.2-.3-.5-.6-.8-.8s-.7-.4-1.2-.4c-.5-.1-1-.1-1.5-.1h-3z"/><path d="m564.6 318.2h5.2c.9 0 1.7.1 2.5.3s1.4.5 1.9.9.9.9 1.2 1.5.4 1.3.4 2.1-.2 1.6-.5 2.2-.7 1.1-1.3 1.5-1.2.7-2 .9-1.6.3-2.5.3h-2.7v7.5h-2.4v-17.2zm2.3 7.5h2.5c.6 0 1.1-.1 1.6-.2s.9-.3 1.3-.5.6-.5.8-.9.3-.8.3-1.3-.1-.9-.3-1.3c-.2-.3-.5-.6-.8-.8s-.8-.4-1.2-.5-1-.1-1.6-.1h-2.6z"/><path d="m592.8 321.7c-.5-.6-1.2-1-2-1.3s-1.7-.5-2.7-.5-1.9.2-2.7.5c-.8.4-1.5.9-2 1.5s-1 1.3-1.3 2.2c-.3.8-.5 1.7-.5 2.6s.2 1.8.5 2.7c.3.8.7 1.6 1.3 2.2s1.2 1.1 2.1 1.5c.8.4 1.7.5 2.7.5.8 0 1.5-.1 2.2-.2s1.3-.4 1.8-.6v-4.7h-3.8v-2h6.1v8.2c-.9.5-1.9.8-2.9 1.1s-2.2.4-3.5.4-2.5-.2-3.7-.7c-1.1-.4-2.1-1.1-2.9-1.8-.8-.8-1.4-1.7-1.9-2.8-.4-1.1-.7-2.3-.7-3.6s.2-2.5.7-3.6 1.1-2 1.9-2.8 1.8-1.4 2.9-1.8 2.3-.6 3.6-.6c1.4 0 2.6.2 3.6.6 1.1.4 1.9.9 2.7 1.6z"/><path d="m615.4 321.3c-.3-.5-.8-.8-1.4-1.1s-1.2-.4-1.9-.4c-.4 0-.8.1-1.2.2s-.7.3-1.1.5c-.3.2-.6.5-.8.9-.2.3-.3.8-.3 1.2 0 .5.1.9.3 1.2s.4.6.7.8.7.4 1.1.6.9.3 1.4.5c.6.2 1.2.4 1.8.6s1.1.5 1.6.9.9.8 1.2 1.4.5 1.3.5 2.1c0 .9-.2 1.6-.5 2.3-.3.6-.8 1.2-1.3 1.6s-1.2.7-1.9.9-1.4.3-2.2.3c-1.1 0-2.1-.2-3.1-.6s-1.8-1-2.5-1.8l1.8-1.6c.4.6.9 1.1 1.6 1.4.7.4 1.4.6 2.2.6.4 0 .8-.1 1.2-.2s.8-.3 1.1-.5.6-.5.8-.9.3-.8.3-1.3-.1-.9-.3-1.3c-.2-.3-.5-.6-.9-.9s-.8-.4-1.3-.6-1-.3-1.5-.5-1.1-.4-1.6-.6-1-.5-1.4-.9-.8-.8-1-1.3c-.3-.5-.4-1.2-.4-2s.2-1.6.5-2.2.8-1.1 1.3-1.5c.6-.4 1.2-.7 1.9-.9s1.4-.3 2.1-.3c1 0 1.9.2 2.8.5.9.4 1.6.8 2.1 1.4z"/><path d="m629.7 335.2c0-.3-.1-.6-.1-1s0-.7 0-.9c-.3.6-.8 1.1-1.5 1.5s-1.4.6-2.3.6c-.7 0-1.4-.1-1.9-.4-.5-.2-1-.6-1.3-1s-.6-.9-.8-1.5-.3-1.2-.3-1.8v-7.1h2.3v6.3c0 .5 0 .9.1 1.3s.2.8.4 1.1.5.6.8.8.8.3 1.3.3c.9 0 1.6-.3 2.2-1s.8-1.6.8-2.7v-6h2.3v8.9 1.2c0 .5 0 .9.1 1.3h-2.1z"/><path d="m639 340.9h-2.3v-17.1h2.2v1.8h.1c.4-.6.9-1.1 1.6-1.5s1.5-.6 2.5-.6c.8 0 1.6.2 2.3.5s1.3.7 1.8 1.3c.5.5.9 1.2 1.2 1.9s.4 1.5.4 2.3-.1 1.6-.4 2.4c-.3.7-.7 1.4-1.1 1.9-.5.5-1.1 1-1.8 1.3s-1.5.5-2.4.5c-.8 0-1.6-.2-2.3-.5s-1.3-.8-1.7-1.5h-.1zm7.5-11.5c0-.5-.1-1-.2-1.5-.2-.5-.4-.9-.7-1.3s-.7-.7-1.2-.9-1-.3-1.6-.3-1.1.1-1.6.3-.9.5-1.2.9-.6.8-.8 1.3-.3 1-.3 1.6c0 .5.1 1.1.3 1.6s.4.9.8 1.3c.3.4.7.7 1.2.9s1 .3 1.6.3 1.2-.1 1.6-.3c.5-.2.9-.5 1.2-.9s.6-.8.7-1.3c.1-.6.2-1.1.2-1.7z"/><path d="m655.4 340.9h-2.3v-17.1h2.2v1.8h.1c.4-.6.9-1.1 1.6-1.5s1.5-.6 2.5-.6c.8 0 1.6.2 2.3.5s1.3.7 1.8 1.3c.5.5.9 1.2 1.2 1.9s.4 1.5.4 2.3-.1 1.6-.4 2.4c-.3.7-.7 1.4-1.1 1.9-.5.5-1.1 1-1.8 1.3s-1.5.5-2.4.5c-.8 0-1.6-.2-2.3-.5s-1.3-.8-1.7-1.5h-.1zm7.5-11.5c0-.5-.1-1-.2-1.5-.2-.5-.4-.9-.7-1.3s-.7-.7-1.2-.9-1-.3-1.6-.3-1.1.1-1.6.3-.9.5-1.2.9-.6.8-.8 1.3-.3 1-.3 1.6c0 .5.1 1.1.3 1.6s.4.9.8 1.3c.3.4.7.7 1.2.9s1 .3 1.6.3 1.2-.1 1.6-.3c.5-.2.9-.5 1.2-.9s.6-.8.7-1.3c.1-.6.2-1.1.2-1.7z"/><path d="m681 329.4c0 .9-.2 1.7-.5 2.4s-.7 1.4-1.3 1.9-1.2 1-2 1.2c-.8.3-1.6.4-2.4.4-.9 0-1.7-.1-2.4-.4-.8-.3-1.4-.7-1.9-1.2s-1-1.2-1.3-1.9-.5-1.5-.5-2.4.2-1.7.5-2.4.7-1.4 1.3-1.9c.5-.5 1.2-.9 1.9-1.2.8-.3 1.6-.4 2.4-.4.9 0 1.7.1 2.4.4.8.3 1.4.7 2 1.2s1 1.2 1.3 1.9c.4.8.5 1.6.5 2.4zm-2.3.1c0-.5-.1-1.1-.3-1.6s-.4-.9-.7-1.3-.7-.7-1.2-.9-1-.3-1.6-.3-1.2.1-1.6.3c-.5.2-.9.5-1.2.9s-.6.8-.7 1.3c-.2.5-.3 1-.3 1.6 0 .5.1 1.1.3 1.6s.4.9.7 1.3.7.7 1.2.9 1 .3 1.6.3 1.2-.1 1.6-.3.9-.5 1.2-.9.6-.8.7-1.3c.2-.6.3-1.1.3-1.6z"/><path d="m685.3 325.1c0-.5 0-.9-.1-1.3h2.1c0 .3.1.6.1 1v.9h.1c.3-.7.8-1.2 1.4-1.6s1.3-.6 2.1-.6c.4 0 .6 0 .9.1l-.1 2.1c-.3-.1-.7-.1-1-.1-.5 0-1 .1-1.4.3s-.7.5-1 .8-.5.7-.6 1.2c-.1.4-.2.9-.2 1.4v6h-2.3v-8.9c0-.5 0-.9 0-1.3z"/><path d="m700.4 325.6h-3v5.9c0 .7.1 1.2.4 1.5s.7.4 1.2.4c.2 0 .4 0 .7-.1.2 0 .5-.1.6-.2l.1 1.8c-.3.1-.6.2-.9.2-.3.1-.7.1-1 .1-1.1 0-1.9-.3-2.5-.9s-.9-1.5-.9-2.7v-6.2h-2.1v-1.8h2.2v-3.3h2.2v3.3h3z"/><path d="m714.5 329.4v.4.4h-9c0 .5.1.9.3 1.3s.5.8.8 1.1.7.6 1.2.7.9.3 1.4.3c.8 0 1.4-.2 2-.5s1-.7 1.3-1.2l1.6 1.3c-.6.8-1.3 1.4-2.1 1.8s-1.7.6-2.7.6c-.9 0-1.7-.1-2.4-.4s-1.4-.7-1.9-1.2-.9-1.1-1.2-1.9c-.3-.7-.5-1.6-.5-2.4 0-.9.1-1.7.4-2.4s.7-1.4 1.2-1.9 1.2-.9 1.9-1.2 1.5-.4 2.3-.4 1.6.1 2.3.4 1.3.7 1.7 1.2c.5.5.8 1.1 1.1 1.9.2.3.3 1.2.3 2.1zm-2.3-.9c0-.4-.1-.9-.2-1.3s-.3-.7-.6-1-.6-.5-1-.7-.9-.3-1.4-.3-.9.1-1.4.3c-.4.2-.8.4-1.1.7s-.6.6-.8 1-.3.8-.3 1.3z"/><path d="m718.8 325.1c0-.5 0-.9-.1-1.3h2.1c0 .3.1.6.1 1v.9h.1c.3-.7.8-1.2 1.4-1.6s1.3-.6 2.1-.6c.4 0 .6 0 .9.1l-.1 2.1c-.3-.1-.7-.1-1-.1-.5 0-1 .1-1.4.3s-.7.5-1 .8-.5.7-.6 1.2c-.1.4-.2.9-.2 1.4v6h-2.3v-8.9c0-.5 0-.9 0-1.3z"/></g></svg>