<svg xmlns="http://www.w3.org/2000/svg" viewBox="0 0 1280 640"><defs><style>.cls-1{fill:#000023;}.cls-2{fill:#0fe;}</style></defs><title>logo</title><g id="Line"><rect class="cls-1" width="1280" height="640"/><polygon class="cls-2" points="906.76 240 845.28 346.67 898.52 346.67 960 240 906.76 240"/><polygon class="cls-2" points="799.17 426.67 852.41 426.67 883.15 373.33 829.91 373.33 799.17 426.67"/><polygon class="cls-2" points="396.85 293.33 320 426.67 373.24 426.67 450.09 293.33 396.85 293.33"/><path class="cls-2" d="M655.92,213.33H522.82l-123,213.34H453.1l30.74-53.34h26.62l-30.74,53.34H533ZM514.58,320l30.74-53.33h26.62L541.2,320Z"/><polygon class="cls-2" points="496.2 213.33 442.96 213.33 412.22 266.67 465.46 266.67 496.2 213.33"/><polygon class="cls-2" points="636.43 293.33 559.59 426.67 612.83 426.67 689.67 293.33 636.43 293.33"/><path class="cls-2" d="M895.51,213.33H762.4L639.45,426.67h53.24l30.74-53.34h26.62l-30.74,53.34h53.24ZM754.17,320l30.74-53.33h26.62L780.79,320Z"/><polygon class="cls-2" points="705.04 266.67 735.78 213.33 682.54 213.33 651.8 266.67 705.04 266.67"/></g></svg>