<svg id="レイヤー_1" data-name="レイヤー 1" xmlns="http://www.w3.org/2000/svg" viewBox="0 0 640 200"><title>Type</title><path d="M198.22,199.55a22.73,22.73,0,0,1-21.4-15.09l-33.14-92.8-33.15,92.8a22.72,22.72,0,1,1-42.8-15.29L122.27,16.45a22.73,22.73,0,0,1,42.81,0l54.55,152.72a22.74,22.74,0,0,1-21.41,30.38Z"/><path d="M186.33,167.73H101.78a22.73,22.73,0,0,1,0-45.46h84.55a22.73,22.73,0,0,1,0,45.46Z"/><path d="M24.58,200A22.72,22.72,0,0,1,1.86,177.29L1.78,88.2A22.74,22.74,0,0,1,24.49,65.45h0A22.74,22.74,0,0,1,47.24,88.16l.07,89.09A22.72,22.72,0,0,1,24.6,200Z"/><path d="M24.59,49.09A24.55,24.55,0,0,1,24.5,0h.09a24.55,24.55,0,0,1,0,49.09Z"/><path d="M262.77,139.09A22.72,22.72,0,0,1,240,116.38L240,64.56a22.73,22.73,0,0,1,22.71-22.74h0a22.73,22.73,0,0,1,22.73,22.71l.07,51.81a22.72,22.72,0,0,1-22.7,22.75Z"/><path d="M262.77,198.18h-.08a22.73,22.73,0,1,1,.08,0Z"/><path d="M551.68,199.55a22.73,22.73,0,0,1-21.41-15.09l-33.14-92.8L464,184.46a22.73,22.73,0,1,1-42.81-15.29L475.73,16.45a22.72,22.72,0,0,1,42.8,0l54.55,152.72a22.74,22.74,0,0,1-21.4,30.38Z"/><path d="M539.78,167.73H455.24a22.73,22.73,0,0,1,0-45.46h84.54a22.73,22.73,0,1,1,0,45.46Z"/><path d="M378,200a22.73,22.73,0,0,1-22.73-22.71l-.07-89.09a22.73,22.73,0,0,1,22.7-22.75h0a22.73,22.73,0,0,1,22.73,22.71l.08,89.09A22.73,22.73,0,0,1,378.06,200Z"/><path d="M378,49.09A24.55,24.55,0,1,1,378,0H378a24.55,24.55,0,1,1,0,49.09Z"/><path d="M616.22,139.09a22.73,22.73,0,0,1-22.73-22.71l-.07-51.82a22.72,22.72,0,0,1,22.71-22.74h0a22.72,22.72,0,0,1,22.72,22.71l.08,51.81a22.73,22.73,0,0,1-22.71,22.75Z"/><path d="M616.22,200h-.07a22.73,22.73,0,1,1,.07,0Z"/></svg>