<svg fill="none" height="48" viewBox="0 0 100 48" width="100" xmlns="http://www.w3.org/2000/svg"><path d="m98.8899 18.9c-.0001-.222-.0495-.4412-.1446-.6418s-.2336-.3776-.4054-.5182l-20.7-16.9c-.0641-.049475-.1348-.089856-.21-.12-.0744-.052956-.155-.096613-.24-.13-.0632-.00467-.1267-.00467-.19 0-.0999-.040777-.2038-.070943-.31-.09h-.17c-.109.004448-.2168.024658-.32.06-.0663.027282-.1299.060763-.19.1-.092.04018-.1792.090491-.26.15l-20.7 16.93c-.1718.1406-.3102.3176-.4054.5182-.0951.2006-.1445.4198-.1446.6418v8.36.14c-.0048.0766-.0048.1534 0 .23-.0042.0466-.0042.0934 0 .14.0293.0686.0627.1354.1.2l.08.13c.0437.0591.0904.1158.14.17l.06.07 20.7 18.77c.1157.1038.2474.1883.39.25h.05.07c.3211.128.679.128 1 0h.07.05c.1427-.0617.2744-.1462.39-.25l20.8-18.77s0-.05.06-.07c.0496-.0542.0964-.1109.14-.17l.08-.13.1-.2v-.14c.0048-.0766.0048-.1534 0-.23-.0048-.0465-.0048-.0935 0-.14v-8.36zm-34.61 7.4 10.92 6.41v9.9l-16.2-14.71zm2.2-2.19 10.22-18.95 10.21 19-10.21 6zm29.41-4.49v5.59l-6-1.8-8.28-15.41zm-24.11-11.62-8.34 15.41-5.94 1.8v-5.59z" fill="#0fe"/></svg>