<svg fill="none" height="48" viewBox="0 0 100 48" width="100" xmlns="http://www.w3.org/2000/svg"><g fill="#0fe"><path d="m31.6399.84c-.0611-.040376-.1245-.077106-.19-.11-.0823-.054344-.1693-.101198-.26-.14l-.19-.04c-.1015-.026544-.2053-.043287-.31-.05h-.19c-.1018.009365-.2024.029477-.3.06-.073.040872-.1403.091318-.2.15-.0821.03297-.1594.076685-.23.13l-20.71998 16.9c-.17181.1406-.31026.3176-.40537.5182s-.14451.4198-.14463.6418v8.36.14c-.00477.0766-.00477.1534 0 .23-.0042.0466-.0042.0934 0 .14.02929.0686.06268.1354.1.2l.08.13c.04364.0591.09037.1158.14.17l.06.07 20.69998 18.77c.1157.1038.2474.1883.39.25h.05.07c.3211.128.679.128 1 0h.07.05c.1427-.0617.2744-.1462.39-.25l20.8-18.77s0-.05.06-.07c.0496-.0542.0964-.1109.14-.17l.08-.13.1-.2v-.14c.0048-.0766.0048-.1534 0-.23-.0048-.0465-.0048-.0935 0-.14v-8.36c-.0001-.222-.0495-.4412-.1446-.6418s-.2336-.3776-.4054-.5182zm-13.36 25.46 10.92 6.41v9.9l-16.2-14.71zm2.2-2.19 10.22-18.95 10.21 19-10.21 6zm29.41-4.49v5.59l-6-1.8-8.28-15.41zm-24.11-11.62-8.34 15.41-5.94 1.8v-5.59z"/><path d="m99.1998 18.9c-.002-.2227-.0532-.4422-.1501-.6427-.0968-.2006-.2367-.3772-.4099-.5173l-20.64-16.900022c-.0705-.053314-.1479-.097029-.23-.13-.0831-.053983-.1742-.094483-.27-.12-.0799-.004804-.16-.004804-.24 0-.0848-.035073-.1716-.065125-.26-.09-.0832-.005576-.1667-.005576-.25 0-.0832-.005667-.1667-.005667-.25 0-.0783.030002-.1523.070361-.22.12-.082.032971-.1594.076686-.2299.13l-20.6901 16.990022c-.1731.1401-.313.3167-.4098.5173-.0969.2005-.1481.42-.1502.6427v8.33.14c-.0088.0764-.0088.1536 0 .23.0122.0481.029.095.05.14.0348.0946.0855.1825.15.26l.08.13.15.17s0 .05.06.07l20.71 18.74c.1121.1036.2405.1881.38.25h.07c.3217.125.6784.125 1 0h.07c.1396-.0619.268-.1464.38-.25l20.8-18.77s0-.05.06-.07l.1501-.17.0899-.1c.0383-.0627.0685-.1299.09-.2.0042-.0466.0042-.0934 0-.14.0257-.0745.0425-.1517.05-.23 0 0 0-.09 0-.14s0 0 0 0zm-34.6199 7.4 10.9199 6.41v9.9l-16.22-14.71zm2.1999-2.19 10.22-18.95002 10.22 19.00002-10.22 5.95zm29.42-4.49v5.59l-6-1.8-8.2899-15.41002zm-24.11-11.62002-8.34 15.41002-6 1.8v-5.59z"/></g></svg>