<svg fill="none" height="48" viewBox="0 0 100 48" width="100" xmlns="http://www.w3.org/2000/svg"><path d="m98.4501 35.66s0-.12.07-.18 0-.07 0-.11 0-.06 0-.08 0-.08 0-.12 0-.11 0-.17v-22s0-.05 0-.07v-.23c.0057-.0465.0057-.0935 0-.14 0 0 0-.05 0-.08s0 0 0 0c-.0036-.0332-.0036-.0668 0-.1 0 0 0-.09-.07-.13s0 0 0 0l-.08-.09-.16-.16s0-.05-.06-.07c-.0833-.0895-.1814-.1639-.29-.22l-19.06-11.01h-.05l-.25-.13h-.1c-.1096-.038785-.224-.062338-.34-.07-.115.001893-.2293.0187-.34.05h-.09l-.25.11-.08.04-19 11c-.1054.0611-.2028.135-.29.22l-.13.08c-.0519.0486-.0988.1022-.14.16l-.06.13-.09.21v.14c-.0104.0763-.0104.1537 0 .23v.07 22.06c.0068.1179.0236.2349.05.35.0447.1446.1086.2825.19.41.0269.0391.057.0758.09.11.0588.0801.1258.1539.2.22l.13.1.09.07 19.05 11h.05.08l.17.06h.09c.1062.0147.2138.0147.32 0 .1128.0152.2272.0152.34 0 .0331.0058.0669.0058.1 0 .0845-.0211.1655-.0548.24-.1h.06l19.06-11 .09-.07h.07l.08-.08.09-.07.11-.16.08-.12zm-37.95-13.94 3.68 10.37-3.68 1zm20.21-8.46 14.29 1.09-5.33 15.13-5.67-10.18zm-2.66 1.39 9.37 17h-18.74zm-6 4.65-5.61 10.18-5.37-15.13 14.33-1.09zm14.49 15.33-8.49 9.16-8.48-9.16zm-7-24.47v-5.56l11.11 6.4zm-3 0-11.08.84 11.09-6.4zm-10.89 24.65 4.57 4.94-7.31-4.23z" fill="#0fe"/></svg>