<svg fill="none" height="48" viewBox="0 0 100 48" width="100" xmlns="http://www.w3.org/2000/svg"><g fill="#0fe"><path d="m78.61 35v-22c-.0008-.2632-.0705-.5217-.2021-.7498-.1315-.228-.3204-.4177-.5479-.5502l-19.06-10.999981c-.2277-.132639-.4865-.202521-.75-.202521s-.5223.069882-.75.202521l-19 10.999981c-.2368.1261-.4358.313-.5764.5415s-.2178.4903-.2236.7585v22c.0008.2633.0705.5218.2021.7498.1315.228.3204.4177.5479.5502l19.05 11c.2292.1288.4871.1976.75.2.263-.0011.5213-.07.75-.2l19.06-11c.2275-.1325.4164-.3222.5479-.5502.1316-.228.2013-.4865.2021-.7498zm-20.56-31.26998 16.06 9.26998-16.06 9.27-16.05-9.27zm-17.55 11.86998 5.39 3.11 10.66 6.16v18.53l-16-9.27z"/><path d="m87.17 28.2c-.3453-.1964-.7542-.2489-1.1379-.1459-.3838.1029-.7115.353-.9121.6959l-9.52 16.5c-.1861.3395-.2328.7381-.1302 1.1114.1027.3734.3466.692.6802.8886.2237.1333.4797.2025.74.2.2637.0012.5229-.0676.7513-.1993.2284-.1318.4177-.3218.5487-.5507l9.53-16.5c.1836-.34.2289-.7378.1264-1.1104s-.3448-.6912-.6764-.8896z"/><path d="m96.5299 43.47h-4.42v-.14l3-3.06c1.77-1.74 2.49-3.06 2.49-4.55 0-2.43-2.13-4.22-5.05-4.22s-5.13 1.85-5.13 3.82c-.0044.1867.0299.3724.1008.5451.071.1728.177.329.3114.4587s.2943.2301.4695.2949c.1752.0647.3619.0924.5483.0813.61 0 1-.27 1.48-1 .1529-.4089.4255-.7623.7823-1.0138.3568-.2516.7812-.3896 1.2177-.3962.2408-.0211.4832.0087.7116.0875.2284.0789.4377.205.6141.3701s.3161.3655.4099.5882.1396.4626.1344.7042c0 .8-.48 1.57-1.62 2.72l-3.58 3.79c-1.06 1-1.41 1.59-1.41 2.23.0024.2138.0501.4246.1401.6186.0899.1939.22.3666.3817.5065.1616.1399.3511.2439.556.3051.2048.0611.4203.0781.6322.0498h7.26c1 0 1.6-.52 1.6-1.38s-.64-1.41-1.63-1.41z"/></g></svg>