<svg fill="none" height="48" viewBox="0 0 100 48" width="100" xmlns="http://www.w3.org/2000/svg"><path d="m98.12 28-22-26.99997-.12-.059996-.16-.16c-.0657-.044404-.1361-.081301-.21-.11l-.15-.08h-.05c-.0797-.009635-.1603-.009635-.24 0l-.19-.08h-.22c-.0797-.009635-.1603-.009635-.24 0h-.05l-.14.08c-.0749.026555-.1456.06359-.21.11-.0646.047946-.1249.101486-.18.16l-.13.11-22 26.999966c-.1281.1546-.2234.3336-.2802.5261-.0567.1926-.0737.3946-.0498.5939.0526.3949.257.7536.57 1l22 17 .1.05c.05 0 .1.08.16.11h.12.11c.2757.093.5743.093.85 0h.12.12c.06 0 .1-.08.16-.11l.1-.05 22-17c.3158-.2453.5238-.604.58-1 .0191-.397-.1132-.7866-.37-1.09zm-24.64-21.77997v36.71997l-18.35-14.2z" fill="#0fe"/></svg>