<svg fill="none" height="48" viewBox="0 0 100 48" width="100" xmlns="http://www.w3.org/2000/svg"><path d="m97.86 11.7-19.06-10.999981c-.2277-.132639-.4865-.202521-.75-.202521s-.5223.069882-.75.202521l-19 10.999981c-.2368.1261-.4358.313-.5764.5415s-.2178.4903-.2236.7585v22c.0008.2633.0705.5218.2021.7498.1315.228.3204.4177.5479.5502l19.05 11c.2292.1288.4871.1976.75.2.263-.0011.5213-.07.75-.2l19.06-11c.2275-.1325.4164-.3222.5479-.5502.1316-.228.2013-.4865.2021-.7498v-22c-.0008-.2632-.0705-.5217-.2021-.7498-.1315-.228-.3204-.4177-.5479-.5502zm-19.81-7.99998 16.06 9.29998-16.06 9.27-16.05-9.27zm-17.55 11.89998 5.39 3.11 10.66 6.16v18.53l-16-9.27z" fill="#0fe"/></svg>