<svg fill="none" height="48" viewBox="0 0 100 48" width="100" xmlns="http://www.w3.org/2000/svg"><path d="m98.3102 23.91c.0197-.1192.0197-.2408 0-.36.0048-.0298.0048-.0602 0-.09-.0427-.1453-.1068-.2835-.19-.41l-.12-.05c-.037-.0524-.077-.1025-.12-.15l-21.4-21.84999h-.06l-.18-.229999c-.0587-.047012-.1224-.087266-.19-.12l-.05-.04c-.0432-.004631-.0868-.004631-.13 0h-.22c-.0731-.009418-.147-.009418-.22 0h-.23l-.2-.03c-.0432-.004631-.0868-.004631-.13 0h-.06c-.0709.032521-.138.072765-.2.12l-.21.2h-.06l-21.41 21.899989c-.043.0475-.0831.0976-.12.15l-.05.05c-.0802.1269-.1409.2651-.18.41v.09c-.0099.1198-.0099.2402 0 .36v.13.11c.0194.09.0496.1773.09.26v.07c.0679.1386.1554.2665.26.38l21.4 22.19.09.08c.031.0178.0582.0416.08.07.1051.0798.2192.1469.34.2.171.0718.3545.1092.54.11.1886-.0017.3752-.0391.55-.11.1208-.0531.2349-.1202.34-.2l.08-.07.09-.08 21.46-22.11c.1014-.1138.1856-.2418.25-.38v-.07c.0325-.0847.0592-.1716.08-.26.0054-.0365.0054-.0735 0-.11.0355-.0484.0626-.1025.08-.16zm-17.55 4.94-3.85 1.59v-24.76999l17.28 17.63999zm-6.85 1.59-17.28-7.13 17.28-17.63999zm-9.56-.7 9.56 3.94v8.61l-13.83-14.29z" fill="#0fe"/></svg>