<svg fill="none" height="180" viewBox="0 0 320 180" width="320" xmlns="http://www.w3.org/2000/svg"><g stroke="#fff" stroke-linecap="round" stroke-linejoin="round"><path d="m159 12.76-15.19 9.3 16.875 15.49-34.665 15.875 29.53 24.205-12.69 6.065" stroke-width="2.5"/><path d="m151.375 6.81995-31.235 12.61995 16.06 12.39-51.7199 15.695 27.8749 18.945-32.6099 11.8151" stroke-width="2.5"/><path d="m105.49 134.35c7.5 0 13.58-6.08 13.58-13.58s-6.08-13.58-13.58-13.58c-7.4999 0-13.5798 6.08-13.5798 13.58s6.0799 13.58 13.5798 13.58z" stroke-width="2.5"/><path d="m100.865 112.755c1.052-.607 2.214-1.001 3.418-1.159 1.205-.158 2.428-.078 3.602.237 1.173.315 2.273.858 3.236 1.598.964.739 1.772 1.662 2.379 2.714" stroke-width="2.5"/><path d="m9.07507 164.255c28.25003 0 36.05503-36.15 62.53003-22.905-10.055-.7-22.87 22.905 15.235 22.905 28.2499 0 34.4999-36.15 60.9999-22.905-10.055-.7-24.42 22.905 13.685 22.905 28.25 0 36.055-36.15 62.525-22.905-10.055-.7-24.42 22.905 13.685 22.905 28.25 0 36.055-36.15 62.525-22.905-10.055-.7-24.42 22.905 13.685 22.905" stroke-width="2.5"/><path d="m50.45 131.04-47.25005 9.45 19.66005 19.995" stroke-width="2.5"/><path d="m61.71 84.825-27.115 9.825 21.91 15.115" stroke-width="2.5"/><path d="m93.68 101.865-13.18-22.8c-1.405-2.435-7.4999-1.54-13.6299 2s-9.9501 8.375-8.5451 10.81l13.175 22.79" stroke-width="2.5"/><path d="m71.5 114.665 62.89-36.31c.744-.4279 1.626-.5434 2.455-.3213.829.2222 1.535.7639 1.965 1.5063l19.71 34.145" stroke-width="2.5"/><path d="m225.38 87.5c3.266 8.5721 4.119 17.876 2.465 26.899s-5.751 17.42-11.845 24.276" stroke-width="2.5"/><path d="m73.28 162.905 88.175-50.91" stroke-width="2.5"/><path d="m112.625 152.605-18.8301 10.87" stroke-width="2.5"/><path d="m165.62 122.01-28.455 16.425" stroke-width="2.5"/><path d="m184.37 98.765 38.755-22.375c.175-.1012.369-.167.569-.1934.201-.0264.405-.013.601.0395.195.0525.378.143.539.2664.16.1233.295.2771.396.4525l3.835 6.64c.101.1753.167.3688.193.5695.027.2007.013.4047-.039.6002-.053.1955-.143.3787-.267.5392-.123.1605-.277.2951-.452.3961l-40.935 23.635" stroke-width="2.5"/><path d="m272.15 123.615c13.535-8.355 21.735-24.1251 39.2-15.39-7.715-.535-18.33 15.25 1.53 19.205" stroke-width="2.5"/><path d="m228.675 106.885c4.455-1.77 9.475-1.835 15.825 1.34-6.615-.46-15.355 11.075-5.21 16.87" stroke-width="2.5"/><path d="m7.17993 122c12.14497-8.585 20.37997-22 36.77497-13.785-8.27-.575-19.86 17.59 6.265 19.865" stroke-width="2.5"/><path d="m145.64 161.32-.13.855c3.81 1.29 9 2.08 16 2.08 13.875 0 22.82-8.72 31.465-16.03v-.625c5.6-24.035-10.965-40.825-8.285-51.74 1.805-7.36 11.475-9.955 13.91-5.295l14.195-8.195c-1.785-9.085-16.75-17.305-33.61-10.435-18.5 7.545-24.87 29.335-15.725 43.865 6.15 9.81 1.625 36.415-17.82 45.52z" fill="#fff" stroke-width="2.5"/><path d="m52.2449 140.245c.335-.15.67-.285 1-.415l.06-.025c.33-.125.66-.245 1-.355h.05c1.0617-.349 2.1504-.61 3.255-.78h.03c.345-.05.69-.095 1.04-.125h.205c.295-.025.59-.04.89-.055h.27.87.275c.315 0 .63.03.95.055h.205c.8028.078 1.6006.2 2.39.365l.305.07c.3.065.6.135.9.215l.425.12c.27.075.545.16.82.245l.465.155c.275.09.55.19.825.295.155.06.315.115.47.18.3.115.6.245.9.375l.415.175c.44.2.885.405 1.34.635-.14 0-.285 0-.43 0h-.17-.3-.17l-.28.03h-.175l-.285.05-.165.035c-.105 0-.205.05-.31.075l-.135.035c-.15.04-.3.085-.445.135h-.045l-.395.145-.15.065-.29.125-.165.08-.265.13c-.0599.029-.1183.06-.175.095-.09.045-.175.095-.26.145l-.165.095-.28.175-.14.09-.4.28-.11.085-.285.215-.165.135-.22.19-.175.15-.2.185-.175.17-.175.21-.175.18c-.06.06-.115.125-.17.185l-.175.195-.13.155c-.125.145-.245.295-.365.45-.0355.054-.0739.105-.115.155l-.185.255-.11.16-.175.26c-.03.055-.065.105-.095.155s-.115.19-.17.285-.055.09-.08.135-.115.205-.17.31l-.04.07c-.206.394-.388.799-.545 1.215-.05.13-.095.26-.14.395.0014.023.0014.047 0 .07-.04.13-.08.26-.115.385v.075c-.04.135-.07.27-.105.405v.035c-.2097.899-.2805 1.825-.21 2.745.34 4.035 3.625 8.075 12.1 10.105 3.555.855 8 1.355 13.56 1.355 4.6535.012 9.2491-1.032 13.4401-3.055.063-4.029-1.0868-7.983-3.3001-11.35-3.655-5.375-10.325-9.14-18.195-11.085-7.97-1.965-14.825-13-7.28-24.1l-7.545-12c-12.12 7.085-16.225 26.5-11.75 36.925z" fill="#fff" stroke-width="2.5"/><path d="m247.55 50.1399c-5.38-13.44-4.805-30.355 19.825-36.78-19.96.195-33.385 15.18-32.585 31.605.755 15.465 15.19 35.225 17.875 49.915 3 16.4301-11.455 38.6751-32.525 39.1201l-.345-.16c-1.162 1.688-2.426 3.302-3.785 4.835 2.79.469 5.489 1.371 8 2.675-10.055-.7-24.42 22.905 13.685 22.905 2.014.001 4.023-.191 6-.575l-.11-.135c18.53-12.455 28.95-28.645 30.69-54.78 1.975-29.1901-21.375-45.2651-26.725-58.6251z" fill="#fff" stroke-width="2.5"/><g stroke-width="1.5"><path d="m14.4 108.735c-2.97-5.907-5.9067-11.83-8.81003-17.77"/><path d="m11.845 51.595c-2.52996-5.095-5.01996-10.27-7.42996-15.45"/><path d="m30.355 88.445c-3.615-7.31-7.31-14.575-11-21.85"/><path d="m47.6701 122.535c-1.4-2.79-2.805-5.58-4.215-8.37"/><path d="m41.315 57.97c-6.055-12.31-12.425-24.47-18.535-36.745"/><path d="m52.7549 80.89c-1.4833-3-2.9733-6-4.47-9"/><path d="m51.36 25.43c-2.79-5.55-5.5767-11.1067-8.36-16.66999"/><path d="m74.27 71.6949c-5.57-11.695-11.355-23.295-17.175-34.875"/><path d="m84.155 39.08c-2.14-4.365-4.32-8.715-6.5-13.06"/><path d="m97.0849 65.0951-2.955-5.94"/><path d="m108 34.56c-4.085-7.5-7.785-15.15-11.4648-22.835"/><path d="m122.935 12.04c-1.8-3.21998-3.3-6.71998-5-10.08498"/><path d="m152.075 70.85c-2.96-6.03-5.935-12.055-8.925-18.075"/><path d="m159.535 86.19c-.437-.9133-.867-1.8283-1.29-2.745"/><path d="m157.675 30.0899c-.927-2-1.825-4.0183-2.695-6.055"/><path d="m175.69 65.78c-4-8-8.25-15.83-12.28-23.795"/><path d="m188 38.195c-3.205-6.5-6.39-13.035-9.605-19.55"/><path d="m199.93 62c-2.18-4.2333-4.332-8.4833-6.455-12.75"/><path d="m215.67 41.17c-2.235-5.33-5.255-10.305-7.86-15.45s-4.755-10.5-7.23-15.68"/><path d="m244.5 99.315c-6.267-12.43-12.443-24.9067-18.53-37.43"/><path d="m233.13 24.13c-2.087-4.29-4.16-8.5934-6.22-12.91"/><path d="m279.39 64.0501c-5.5-11.175-11.07-22.33-16.76-33.42"/><path d="m296.765 98.93c-3.68-7.18-7.34-14.37-10.85-21.64"/><path d="m293.4 39.1201c-4.7-9.555-9.5-19.06-14.56-28.425"/><path d="m316.225 85.925c-5.395-10.755-10.595-21.605-15.835-32.44"/><path d="m314.415 29.81c-3.5-6.55-6.74-13.22-9.97-19.90003"/></g></g></svg>