<svg role="img" aria-labelledby="title" fill="none" height="120" viewBox="0 0 360 120" width="360" xmlns="http://www.w3.org/2000/svg"><title id="title">iAiA</title><path clip-rule="evenodd" d="m114.1 0h74.9l-69.3 120h-29.9l17.3-30h-15l-17.3 30h-29.9zm27.7 30h-15l-17.3 30h15zm153.7 45h29.9l34.6-60h-29.9zm-295.5 45 43.2-75h30l-43.3 75zm299.5 0h-30l17.3-30h30zm-121.5-75-43.2 75h29.9l43.2-75zm70.8-45h74.9l-69.3 120h-29.9l17.3-30h-15l-17.3 30h-29.9zm27.7 30h-15l-17.3 30h15zm-59.9 0 17.3-30h-30l-17.3 30zm-147.4-30h29.9l-17.3 30h-29.9z" fill="#141b1e" fill-rule="evenodd"/></svg>
